<?xml version="1.0" encoding="UTF-8" standalone="no"?>
<svg
   xmlns:dc="http://purl.org/dc/elements/1.1/"
   xmlns:cc="http://creativecommons.org/ns#"
   xmlns:rdf="http://www.w3.org/1999/02/22-rdf-syntax-ns#"
   xmlns:svg="http://www.w3.org/2000/svg"
   xmlns="http://www.w3.org/2000/svg"
   viewBox="0 0 1821.3333 1024"
   height="1024"
   width="1821.3333"
   xml:space="preserve"
   id="svg2"
   version="1.1"><metadata
     id="metadata8"><rdf:RDF><cc:Work
         rdf:about=""><dc:format>image/svg+xml</dc:format><dc:type
           rdf:resource="http://purl.org/dc/dcmitype/StillImage" /></cc:Work></rdf:RDF></metadata><defs
     id="defs6"><clipPath
       id="clipPath18"
       clipPathUnits="userSpaceOnUse"><path
         id="path16"
         d="M 0,768 H 1366 V 0 H 0 Z" /></clipPath><linearGradient
       id="linearGradient40"
       spreadMethod="pad"
       gradientTransform="matrix(372,0,0,372,-54.1211,795.5061)"
       gradientUnits="userSpaceOnUse"
       y2="0"
       x2="1"
       y1="0"
       x1="0"><stop
         id="stop26"
         offset="0"
         style="stop-opacity:1;stop-color:#a8c0d8" /><stop
         id="stop28"
         offset="0.197315"
         style="stop-opacity:1;stop-color:#a8c0d8" /><stop
         id="stop30"
         offset="0.20027909"
         style="stop-opacity:1;stop-color:#a8c0d8" /><stop
         id="stop32"
         offset="0.581267"
         style="stop-opacity:1;stop-color:#a8b5c3" /><stop
         id="stop34"
         offset="0.58178454"
         style="stop-opacity:1;stop-color:#a8b5c3" /><stop
         id="stop36"
         offset="0.872538"
         style="stop-opacity:1;stop-color:#a8aaad" /><stop
         id="stop38"
         offset="1"
         style="stop-opacity:1;stop-color:#a8aaad" /></linearGradient></defs><g
     transform="matrix(1.3333333,0,0,-1.3333333,0,1024)"
     id="g10"><g
       id="g12"><g
         clip-path="url(#clipPath18)"
         id="g14"><g
           transform="translate(552.6211,409.1821)"
           id="g20"><path
             id="path22"
             style="fill:#ffffff;fill-opacity:1;fill-rule:nonzero;stroke:none"
             d="m 0,0 c -27.648,-43.783 -38.5,-91.324 -32.626,-142.375 3.599,-31.288 13.821,-60.405 31.282,-86.679 m 100.538,-69.111 c -22.052,88.033 -43.686,174.395 -65.32,260.758 -0.569,-0.094 -1.138,-0.189 -1.707,-0.284 0,-8.274 0,-16.549 0,-24.823 -0.006,-65.612 0.039,-131.225 -0.107,-196.836 -0.013,-5.772 1.981,-9.648 6.641,-12.951 13.291,-9.421 27.643,-16.547 43.265,-21.116 5.192,-1.518 10.43,-2.88 17.228,-4.748 m -2.087,463.632 c -0.356,0.143 -0.711,0.286 -1.067,0.429 -0.816,-1.365 -1.735,-2.68 -2.431,-4.104 C 77.433,128.684 58.343,97.262 38.139,66.51 32.713,58.251 31.253,49.868 33.752,40.424 38.901,20.966 43.901,1.468 48.855,-18.042 62.918,-73.421 76.919,-128.816 90.969,-184.2 c 1.591,-6.267 3.339,-12.496 5.014,-18.743 0.375,0.082 0.749,0.164 1.124,0.245 z M -53.621,-120.182 c 0.715,5.899 1.492,11.793 2.133,17.7 3.167,29.168 13.505,55.93 26.418,82.039 22.415,45.322 51.07,86.909 76.834,130.225 27.606,46.413 52.996,93.883 69.019,145.778 2.696,8.732 5.165,17.533 7.757,26.297 0.024,0.081 0.293,0.09 0.87,0.248 v -581.456 c 14.143,-2.077 27.588,-0.012 40.935,2.953 37.082,8.235 67.838,26.778 89.363,58.317 32.555,47.7 44.614,100.535 35.589,157.723 -4.818,30.523 -17.705,58.082 -33.181,84.539 -6.554,11.204 -12.924,22.515 -19.342,33.798 -0.935,1.644 -1.67,3.403 -2.059,5.353 11.265,-9.829 21.219,-20.709 29.428,-33.051 22.111,-33.243 36.955,-69.526 44.514,-108.721 1.442,-7.477 1.841,-15.156 2.722,-22.742 v -18 c -0.322,-2.116 -0.666,-4.23 -0.963,-6.35 -1.73,-12.337 -2.695,-24.838 -5.31,-36.985 -9.105,-42.322 -26.057,-80.581 -59.038,-110.234 -20.134,-18.103 -42.862,-31.393 -69.113,-38.457 -30.003,-8.073 -60.14,-7.375 -90.49,-2.071 -31.352,5.48 -58.117,19.933 -80.92,41.547 -38.462,36.456 -56.236,82.883 -62.872,134.375 -0.822,6.384 -1.532,12.783 -2.294,19.175 z" /></g><g
           transform="translate(552.6211,409.1821)"
           id="g24"><path
             id="path42"
             style="fill:none;stroke:url(#linearGradient40);stroke-width:1;stroke-linecap:butt;stroke-linejoin:miter;stroke-miterlimit:10;stroke-dasharray:none;stroke-opacity:1"
             d="m 0,0 c -27.648,-43.783 -38.5,-91.324 -32.626,-142.375 3.599,-31.288 13.821,-60.405 31.282,-86.679 m 100.538,-69.111 c -22.052,88.033 -43.686,174.395 -65.32,260.758 -0.569,-0.094 -1.138,-0.189 -1.707,-0.284 0,-8.274 0,-16.549 0,-24.823 -0.006,-65.612 0.039,-131.225 -0.107,-196.836 -0.013,-5.772 1.981,-9.648 6.641,-12.951 13.291,-9.421 27.643,-16.547 43.265,-21.116 5.192,-1.518 10.43,-2.88 17.228,-4.748 z m -2.087,463.632 c -0.356,0.143 -0.711,0.286 -1.067,0.429 -0.816,-1.365 -1.735,-2.68 -2.431,-4.104 C 77.433,128.684 58.343,97.262 38.139,66.51 32.713,58.251 31.253,49.868 33.752,40.424 38.901,20.966 43.901,1.468 48.855,-18.042 62.918,-73.421 76.919,-128.816 90.969,-184.2 c 1.591,-6.267 3.339,-12.496 5.014,-18.743 0.375,0.082 0.749,0.164 1.124,0.245 z M -53.621,-120.182 c 0.715,5.899 1.492,11.793 2.133,17.7 3.167,29.168 13.505,55.93 26.418,82.039 22.415,45.322 51.07,86.909 76.834,130.225 27.606,46.413 52.996,93.883 69.019,145.778 2.696,8.732 5.165,17.533 7.757,26.297 0.024,0.081 0.293,0.09 0.87,0.248 v -581.456 c 14.143,-2.077 27.588,-0.012 40.935,2.953 37.082,8.235 67.838,26.778 89.363,58.317 32.555,47.7 44.614,100.535 35.589,157.723 -4.818,30.523 -17.705,58.082 -33.181,84.539 -6.554,11.204 -12.924,22.515 -19.342,33.798 -0.935,1.644 -1.67,3.403 -2.059,5.353 11.265,-9.829 21.219,-20.709 29.428,-33.051 22.111,-33.243 36.955,-69.526 44.514,-108.721 1.442,-7.477 1.841,-15.156 2.722,-22.742 v -18 c -0.322,-2.116 -0.666,-4.23 -0.963,-6.35 -1.73,-12.337 -2.695,-24.838 -5.31,-36.985 -9.105,-42.322 -26.057,-80.581 -59.038,-110.234 -20.134,-18.103 -42.862,-31.393 -69.113,-38.457 -30.003,-8.073 -60.14,-7.375 -90.49,-2.071 -31.352,5.48 -58.117,19.933 -80.92,41.547 -38.462,36.456 -56.236,82.883 -62.872,134.375 -0.822,6.384 -1.532,12.783 -2.294,19.175 z" /></g></g></g></g></svg>